<?xml version="1.0" standalone="no"?>
<!DOCTYPE svg PUBLIC "-//W3C//DTD SVG 20010904//EN"
 "http://www.w3.org/TR/2001/REC-SVG-20010904/DTD/svg10.dtd">
<svg version="1.0" xmlns="http://www.w3.org/2000/svg"
 width="32.000000pt" height="32.000000pt" viewBox="0 0 32.000000 32.000000"
 preserveAspectRatio="xMidYMid meet">
<metadata>
Created by potrace 1.16, written by Peter Selinger 2001-2019
</metadata>
<g transform="translate(0.000000,32.000000) scale(0.100000,-0.100000)"
fill="#000000" stroke="none">
<path d="M112 243 c-10 -21 -8 -125 2 -142 4 -6 29 -11 57 -11 37 0 49 4 49
15 0 11 -11 15 -40 15 -33 0 -40 3 -40 20 0 16 7 20 35 20 24 0 35 5 35 15 0
10 -11 15 -35 15 -28 0 -35 4 -35 20 0 17 7 20 40 20 29 0 40 4 40 15 0 23
-96 21 -108 -2z"/>
</g>
</svg>
